<?xml version="1.0" encoding="UTF-8" standalone="no"?>
<svg width="89px" height="63px" viewBox="0 0 89 63" version="1.1" xmlns="http://www.w3.org/2000/svg" xmlns:xlink="http://www.w3.org/1999/xlink" xmlns:sketch="http://www.bohemiancoding.com/sketch/ns">
    <!-- Generator: Sketch 3.5.1 (25234) - http://www.bohemiancoding.com/sketch -->
    <title>Page 1_icon</title>
    <desc>Created with Sketch.</desc>
    <defs></defs>
    <g id="Company" stroke="none" stroke-width="1" fill="none" fill-rule="evenodd" sketch:type="MSPage">
        <g id="Company_v2.2" sketch:type="MSArtboardGroup" transform="translate(-181.000000, -1729.000000)" fill="#FF365D">
            <g id="3-Services-list" sketch:type="MSLayerGroup" transform="translate(60.000000, 1493.000000)">
                <g id="service-1" transform="translate(0.000000, 190.000000)" sketch:type="MSShapeGroup">
                    <path d="M209.897268,75.2864711 C209.897268,75.1890076 209.897268,75.1890076 209.897268,75.2864711 C209.897268,75.0915441 209.799805,74.9874952 209.799805,74.8900317 L209.799805,74.8900317 C209.702341,74.7925681 209.702341,74.6951046 209.603561,74.5923728 C209.603561,74.5923728 209.603561,74.5923728 209.506097,74.4935922 C209.506097,74.4935922 209.506097,74.4935922 209.408633,74.4935922 L190.537588,63.6277266 C190.238612,63.4327996 189.847441,63.4327996 189.549782,63.6277266 L184.903143,66.3962175 L184.903143,57.7008909 C184.903143,57.403232 184.708216,57.0120609 184.40924,56.909329 L165.939903,46.1461953 C165.640927,45.9512682 165.251073,45.9512682 164.952097,46.1461953 L146.677687,56.8171338 C146.677687,56.8171338 146.677687,56.8171338 146.580223,56.8171338 C146.580223,56.8171338 146.580223,56.8171338 146.48276,56.9145973 C146.383979,57.0120609 146.286516,57.1095244 146.286516,57.1095244 L146.286516,57.1095244 L146.286516,57.1095244 C146.189052,57.2069879 146.189052,57.3057685 146.189052,57.4085003 L146.189052,57.5059638 L146.189052,57.6034274 L146.189052,66.493681 L141.152559,63.6277266 C140.853583,63.4327996 140.462412,63.4327996 140.164753,63.6277266 L121.488635,74.3961287 C121.488635,74.3961287 121.488635,74.3961287 121.391171,74.3961287 C121.391171,74.3961287 121.391171,74.3961287 121.293708,74.4935922 C121.194927,74.5923728 121.097464,74.6898363 121.097464,74.7925681 L121.097464,74.7925681 L121.097464,74.7925681 C121.097464,74.8900317 121,74.8900317 121,74.9874952 L121,75.2864711 L121,96.7192263 C121,97.0182023 121.194927,97.4093734 121.493903,97.5121052 L140.164753,108.377971 L140.262216,108.377971 L140.35968,108.377971 C140.457143,108.377971 140.555924,108.475434 140.658656,108.475434 C140.756119,108.475434 140.853583,108.475434 140.956315,108.377971 L141.053778,108.377971 L141.152559,108.377971 L159.822091,97.2131293 C160.121067,97.0182023 160.315994,96.7192263 160.315994,96.4215675 L160.315994,88.1226803 L164.957365,90.7884393 L165.054829,90.7884393 L165.152292,90.7884393 C165.251073,90.7884393 165.348536,90.8859029 165.451268,90.8859029 L165.451268,90.8859029 L165.451268,90.8859029 C165.548732,90.8859029 165.646195,90.8859029 165.748927,90.7884393 L165.847708,90.7884393 L165.945171,90.7884393 L170.585225,88.1226803 L170.585225,96.8180069 C170.585225,97.2131293 170.781469,97.5068369 171.079128,97.6095688 L190.146417,108.475434 L190.243881,108.475434 L190.341344,108.475434 C190.440125,108.475434 190.537588,108.572898 190.64032,108.572898 C190.737784,108.572898 190.835247,108.572898 190.937979,108.475434 L191.03676,108.475434 L191.134223,108.475434 L209.506097,97.6095688 C209.805073,97.4146417 210,97.1156658 210,96.8180069 L209.897268,75.2864711 L209.897268,75.2864711 L209.897268,75.2864711 Z M190.043685,65.6033386 L207.031314,75.2864711 L190.537588,84.7680913 L173.348448,75.1890076 L190.043685,65.6033386 Z M165.446,48.1218072 L182.043774,57.8049398 L165.251073,67.2865599 L148.952275,57.7061592 L165.446,48.1218072 Z M140.653387,65.6033386 L157.348625,75.1837393 L140.653387,84.8655548 L123.860686,75.1890076 L140.653387,65.6033386 Z M122.970344,76.8656436 L139.665581,86.5487762 L139.665581,105.810992 L122.970344,96.1278598 L122.970344,76.8656436 Z M141.54373,105.810992 L141.54373,86.5487762 L158.237651,76.8656436 L158.237651,95.7314204 L141.54373,105.810992 Z M160.207994,75.1890076 C160.207994,75.0915441 160.207994,75.0915441 160.207994,75.1890076 C160.207994,74.9927635 160.110531,74.8900317 160.110531,74.7925681 L160.110531,74.7925681 L160.110531,74.7925681 C160.013067,74.6951046 160.013067,74.5976411 159.915604,74.4935922 C159.915604,74.4935922 159.915604,74.4935922 159.81814,74.3961287 C159.81814,74.3961287 159.81814,74.3961287 159.71936,74.3961287 L148.061932,67.6777311 L148.061932,59.3788439 L164.36073,68.9579276 L164.36073,88.1226803 L160.213262,85.7506289 L160.207994,75.1890076 L160.207994,75.1890076 L160.207994,75.1890076 Z M166.336342,88.1279486 L166.336342,68.9631959 L182.927531,59.4815758 L182.927531,67.481487 L170.878933,74.3961287 C170.878933,74.3961287 170.878933,74.3961287 170.781469,74.4935922 C170.781469,74.4935922 170.781469,74.4935922 170.684006,74.5923728 C170.585225,74.6898363 170.487762,74.7872998 170.487762,74.8900317 L170.487762,74.8900317 L170.487762,74.9874952 L170.487762,75.0862758 L170.487762,75.2812028 L170.487762,75.2812028 L170.487762,75.2812028 L170.487762,85.8494095 L166.336342,88.1279486 Z M172.360642,76.8656436 L189.549782,86.4460443 L189.549782,105.908456 L172.360642,96.1278598 L172.360642,76.8656436 Z M191.525394,105.810992 L191.525394,86.4513126 L207.921656,76.9631071 L207.921656,96.0303963 L191.525394,105.810992 Z M134.232649,90.1035605 C134.036405,90.4025365 133.738746,90.5974635 133.43977,90.5974635 C133.244843,90.5974635 133.142111,90.5974635 132.945867,90.5 L128.598203,88.0304851 C128.1043,87.7315092 128.006837,87.1401427 128.203081,86.7437032 C128.50074,86.2498002 129.092106,86.1523367 129.488546,86.3472637 L133.836209,88.8167786 C134.330112,89.1157546 134.525039,89.7071211 134.232649,90.1035605 L134.232649,90.1035605 Z M184.214313,90.2010241 C184.019386,90.5 183.72041,90.694927 183.421434,90.694927 C183.226507,90.694927 183.123775,90.694927 182.927531,90.5974635 L178.581185,88.1279486 C178.087282,87.8289727 177.988501,87.2376062 178.184746,86.8411667 C178.482404,86.3472637 179.075088,86.2498002 179.47021,86.4460443 L183.817874,88.9155592 C184.40924,89.1157546 184.513289,89.7071211 184.214313,90.2010241 L184.214313,90.2010241 Z" id="Page-1"></path>
                </g>
            </g>
        </g>
    </g>
</svg>